<mxfile host="app.diagrams.net" modified="2023-04-30T05:24:11.276Z" agent="Mozilla/5.0 (Windows NT 10.0; Win64; x64) AppleWebKit/537.36 (KHTML, like Gecko) Chrome/112.0.0.0 Safari/537.36 Edg/112.0.1722.48" etag="MijIW7chfwZr0gKXvRHh" version="21.2.3" type="github">
  <diagram name="Page-1" id="42789a77-a242-8287-6e28-9cd8cfd52e62">
    <mxGraphModel dx="1197" dy="701" grid="1" gridSize="10" guides="1" tooltips="1" connect="1" arrows="1" fold="1" page="1" pageScale="1" pageWidth="1100" pageHeight="850" background="none" math="0" shadow="0">
      <root>
        <mxCell id="0" />
        <mxCell id="1" parent="0" />
        <mxCell id="_Vo9d1E7QLIDPywuxjiI-16" value="" style="group" vertex="1" connectable="0" parent="1">
          <mxGeometry x="190" y="180" width="335" height="190" as="geometry" />
        </mxCell>
        <mxCell id="1ea317790d2ca983-2" value="&lt;span&gt;客户端&lt;/span&gt;" style="ellipse;whiteSpace=wrap;html=1;rounded=0;shadow=1;comic=0;labelBackgroundColor=none;strokeWidth=1;fontFamily=Verdana;fontSize=12;align=center;" parent="_Vo9d1E7QLIDPywuxjiI-16" vertex="1">
          <mxGeometry x="127.5" y="140" width="75" height="50" as="geometry" />
        </mxCell>
        <mxCell id="1ea317790d2ca983-3" value="&lt;span&gt;客户端&lt;/span&gt;" style="ellipse;whiteSpace=wrap;html=1;rounded=0;shadow=1;comic=0;labelBackgroundColor=none;strokeWidth=1;fontFamily=Verdana;fontSize=12;align=center;" parent="_Vo9d1E7QLIDPywuxjiI-16" vertex="1">
          <mxGeometry x="260" y="140" width="75" height="50" as="geometry" />
        </mxCell>
        <mxCell id="1ea317790d2ca983-9" value="客户端" style="ellipse;whiteSpace=wrap;html=1;rounded=0;shadow=1;comic=0;labelBackgroundColor=none;strokeWidth=1;fontFamily=Verdana;fontSize=12;align=center;" parent="_Vo9d1E7QLIDPywuxjiI-16" vertex="1">
          <mxGeometry y="140" width="75" height="50" as="geometry" />
        </mxCell>
        <mxCell id="_Vo9d1E7QLIDPywuxjiI-1" value="&lt;font style=&quot;font-size: 16px;&quot;&gt;&lt;b&gt;&amp;nbsp;中央服务器&lt;/b&gt;&lt;/font&gt;" style="ellipse;shape=cloud;whiteSpace=wrap;html=1;shadow=1;" vertex="1" parent="_Vo9d1E7QLIDPywuxjiI-16">
          <mxGeometry x="100" width="120" height="80" as="geometry" />
        </mxCell>
        <mxCell id="1ea317790d2ca983-12" style="edgeStyle=none;rounded=1;html=1;labelBackgroundColor=none;startArrow=none;startFill=0;startSize=5;endArrow=classicThin;endFill=1;endSize=5;jettySize=auto;orthogonalLoop=1;strokeColor=#B3B3B3;strokeWidth=1;fontFamily=Verdana;fontSize=12;exitX=0.528;exitY=0.955;exitDx=0;exitDy=0;exitPerimeter=0;" parent="_Vo9d1E7QLIDPywuxjiI-16" source="_Vo9d1E7QLIDPywuxjiI-1" target="1ea317790d2ca983-2" edge="1">
          <mxGeometry relative="1" as="geometry">
            <mxPoint x="165" y="100" as="sourcePoint" />
          </mxGeometry>
        </mxCell>
        <mxCell id="1ea317790d2ca983-14" value="" style="edgeStyle=none;rounded=1;html=1;labelBackgroundColor=none;startArrow=none;startFill=0;startSize=5;endArrow=classicThin;endFill=1;endSize=5;jettySize=auto;orthogonalLoop=1;strokeColor=#B3B3B3;strokeWidth=1;fontFamily=Verdana;fontSize=12;exitX=0.881;exitY=0.824;exitDx=0;exitDy=0;exitPerimeter=0;entryX=0.285;entryY=0.008;entryDx=0;entryDy=0;entryPerimeter=0;" parent="_Vo9d1E7QLIDPywuxjiI-16" source="_Vo9d1E7QLIDPywuxjiI-1" target="1ea317790d2ca983-3" edge="1">
          <mxGeometry relative="1" as="geometry">
            <mxPoint x="202.78305900278633" y="86.29506336139127" as="sourcePoint" />
          </mxGeometry>
        </mxCell>
        <mxCell id="_Vo9d1E7QLIDPywuxjiI-5" value="" style="endArrow=classic;html=1;rounded=0;exitX=0.817;exitY=0.111;exitDx=0;exitDy=0;entryX=0.177;entryY=0.805;entryDx=0;entryDy=0;entryPerimeter=0;strokeColor=#B3B3B3;exitPerimeter=0;" edge="1" parent="_Vo9d1E7QLIDPywuxjiI-16" source="1ea317790d2ca983-9" target="_Vo9d1E7QLIDPywuxjiI-1">
          <mxGeometry width="50" height="50" relative="1" as="geometry">
            <mxPoint x="200" y="90" as="sourcePoint" />
            <mxPoint x="250" y="40" as="targetPoint" />
          </mxGeometry>
        </mxCell>
        <mxCell id="_Vo9d1E7QLIDPywuxjiI-6" value="下发" style="edgeLabel;html=1;align=center;verticalAlign=middle;resizable=0;points=[];" vertex="1" connectable="0" parent="_Vo9d1E7QLIDPywuxjiI-5">
          <mxGeometry x="0.2735" relative="1" as="geometry">
            <mxPoint x="-34" y="-2" as="offset" />
          </mxGeometry>
        </mxCell>
        <mxCell id="_Vo9d1E7QLIDPywuxjiI-10" value="上传" style="edgeLabel;html=1;align=center;verticalAlign=middle;resizable=0;points=[];" vertex="1" connectable="0" parent="_Vo9d1E7QLIDPywuxjiI-16">
          <mxGeometry x="139.99982265664107" y="129.9975320415086" as="geometry">
            <mxPoint x="49" y="-12" as="offset" />
          </mxGeometry>
        </mxCell>
        <mxCell id="1ea317790d2ca983-13" value="" style="edgeStyle=none;rounded=1;html=1;labelBackgroundColor=none;startArrow=none;startFill=0;startSize=5;endArrow=classicThin;endFill=1;endSize=5;jettySize=auto;orthogonalLoop=1;strokeColor=#B3B3B3;strokeWidth=1;fontFamily=Verdana;fontSize=12;exitX=0.13;exitY=0.77;exitDx=0;exitDy=0;exitPerimeter=0;" parent="_Vo9d1E7QLIDPywuxjiI-16" source="_Vo9d1E7QLIDPywuxjiI-1" target="1ea317790d2ca983-9" edge="1">
          <mxGeometry x="0.0028" relative="1" as="geometry">
            <mxPoint x="127.00978874751354" y="86.07957778593618" as="sourcePoint" />
            <mxPoint as="offset" />
          </mxGeometry>
        </mxCell>
        <mxCell id="_Vo9d1E7QLIDPywuxjiI-7" value="上传" style="edgeLabel;html=1;align=center;verticalAlign=middle;resizable=0;points=[];" vertex="1" connectable="0" parent="1ea317790d2ca983-13">
          <mxGeometry x="0.0656" y="-1" relative="1" as="geometry">
            <mxPoint x="23" y="10" as="offset" />
          </mxGeometry>
        </mxCell>
        <mxCell id="_Vo9d1E7QLIDPywuxjiI-11" style="edgeStyle=none;rounded=1;html=1;labelBackgroundColor=none;startArrow=none;startFill=0;startSize=5;endArrow=classicThin;endFill=1;endSize=5;jettySize=auto;orthogonalLoop=1;strokeColor=#B3B3B3;strokeWidth=1;fontFamily=Verdana;fontSize=12;exitX=0.398;exitY=-0.01;exitDx=0;exitDy=0;exitPerimeter=0;entryX=0.914;entryY=0.79;entryDx=0;entryDy=0;entryPerimeter=0;" edge="1" parent="_Vo9d1E7QLIDPywuxjiI-16" source="1ea317790d2ca983-3" target="_Vo9d1E7QLIDPywuxjiI-1">
          <mxGeometry relative="1" as="geometry">
            <mxPoint x="330" y="160" as="sourcePoint" />
            <mxPoint x="222" y="164" as="targetPoint" />
          </mxGeometry>
        </mxCell>
        <mxCell id="_Vo9d1E7QLIDPywuxjiI-12" value="" style="endArrow=classic;html=1;rounded=0;entryX=0.477;entryY=0.938;entryDx=0;entryDy=0;entryPerimeter=0;strokeColor=#B3B3B3;exitX=0.577;exitY=0.007;exitDx=0;exitDy=0;exitPerimeter=0;" edge="1" parent="_Vo9d1E7QLIDPywuxjiI-16" source="1ea317790d2ca983-2">
          <mxGeometry width="50" height="50" relative="1" as="geometry">
            <mxPoint x="170" y="140" as="sourcePoint" />
            <mxPoint x="170" y="76" as="targetPoint" />
          </mxGeometry>
        </mxCell>
        <mxCell id="_Vo9d1E7QLIDPywuxjiI-13" value="下发" style="edgeLabel;html=1;align=center;verticalAlign=middle;resizable=0;points=[];" vertex="1" connectable="0" parent="_Vo9d1E7QLIDPywuxjiI-12">
          <mxGeometry x="0.2735" relative="1" as="geometry">
            <mxPoint x="-21" y="7" as="offset" />
          </mxGeometry>
        </mxCell>
        <mxCell id="_Vo9d1E7QLIDPywuxjiI-14" value="下发" style="edgeLabel;html=1;align=center;verticalAlign=middle;resizable=0;points=[];" vertex="1" connectable="0" parent="_Vo9d1E7QLIDPywuxjiI-16">
          <mxGeometry x="229.99633382216973" y="110.00435142027982" as="geometry" />
        </mxCell>
        <mxCell id="_Vo9d1E7QLIDPywuxjiI-15" value="上传" style="edgeLabel;html=1;align=center;verticalAlign=middle;resizable=0;points=[];" vertex="1" connectable="0" parent="_Vo9d1E7QLIDPywuxjiI-16">
          <mxGeometry x="169.99633382216973" y="120.00435142027982" as="geometry">
            <mxPoint x="91" y="-32" as="offset" />
          </mxGeometry>
        </mxCell>
        <mxCell id="_Vo9d1E7QLIDPywuxjiI-55" value="" style="group" vertex="1" connectable="0" parent="1">
          <mxGeometry x="600" y="135" width="335" height="290" as="geometry" />
        </mxCell>
        <mxCell id="_Vo9d1E7QLIDPywuxjiI-17" value="" style="group" vertex="1" connectable="0" parent="_Vo9d1E7QLIDPywuxjiI-55">
          <mxGeometry width="335" height="190" as="geometry" />
        </mxCell>
        <mxCell id="_Vo9d1E7QLIDPywuxjiI-18" value="&lt;span&gt;客户端&lt;/span&gt;" style="ellipse;whiteSpace=wrap;html=1;rounded=0;shadow=1;comic=0;labelBackgroundColor=none;strokeWidth=1;fontFamily=Verdana;fontSize=12;align=center;" vertex="1" parent="_Vo9d1E7QLIDPywuxjiI-17">
          <mxGeometry x="127.5" y="140" width="75" height="50" as="geometry" />
        </mxCell>
        <mxCell id="_Vo9d1E7QLIDPywuxjiI-19" value="&lt;span&gt;客户端&lt;/span&gt;" style="ellipse;whiteSpace=wrap;html=1;rounded=0;shadow=1;comic=0;labelBackgroundColor=none;strokeWidth=1;fontFamily=Verdana;fontSize=12;align=center;" vertex="1" parent="_Vo9d1E7QLIDPywuxjiI-17">
          <mxGeometry x="260" y="140" width="75" height="50" as="geometry" />
        </mxCell>
        <mxCell id="_Vo9d1E7QLIDPywuxjiI-20" value="客户端" style="ellipse;whiteSpace=wrap;html=1;rounded=0;shadow=1;comic=0;labelBackgroundColor=none;strokeWidth=1;fontFamily=Verdana;fontSize=12;align=center;" vertex="1" parent="_Vo9d1E7QLIDPywuxjiI-17">
          <mxGeometry x="-40" y="130" width="75" height="50" as="geometry" />
        </mxCell>
        <mxCell id="_Vo9d1E7QLIDPywuxjiI-21" value="&lt;font style=&quot;font-size: 16px;&quot;&gt;&lt;b&gt;&amp;nbsp;中央服务器&lt;/b&gt;&lt;/font&gt;" style="ellipse;shape=cloud;whiteSpace=wrap;html=1;shadow=1;" vertex="1" parent="_Vo9d1E7QLIDPywuxjiI-17">
          <mxGeometry x="100" width="120" height="80" as="geometry" />
        </mxCell>
        <mxCell id="_Vo9d1E7QLIDPywuxjiI-22" style="edgeStyle=none;rounded=1;html=1;labelBackgroundColor=none;startArrow=none;startFill=0;startSize=5;endArrow=classicThin;endFill=1;endSize=5;jettySize=auto;orthogonalLoop=1;strokeColor=#B3B3B3;strokeWidth=1;fontFamily=Verdana;fontSize=12;exitX=0.528;exitY=0.955;exitDx=0;exitDy=0;exitPerimeter=0;" edge="1" parent="_Vo9d1E7QLIDPywuxjiI-17" source="_Vo9d1E7QLIDPywuxjiI-21" target="_Vo9d1E7QLIDPywuxjiI-18">
          <mxGeometry relative="1" as="geometry">
            <mxPoint x="165" y="100" as="sourcePoint" />
          </mxGeometry>
        </mxCell>
        <mxCell id="_Vo9d1E7QLIDPywuxjiI-23" value="" style="edgeStyle=none;rounded=1;html=1;labelBackgroundColor=none;startArrow=none;startFill=0;startSize=5;endArrow=classicThin;endFill=1;endSize=5;jettySize=auto;orthogonalLoop=1;strokeColor=#B3B3B3;strokeWidth=1;fontFamily=Verdana;fontSize=12;exitX=0.881;exitY=0.824;exitDx=0;exitDy=0;exitPerimeter=0;entryX=0.285;entryY=0.008;entryDx=0;entryDy=0;entryPerimeter=0;" edge="1" parent="_Vo9d1E7QLIDPywuxjiI-17" source="_Vo9d1E7QLIDPywuxjiI-21" target="_Vo9d1E7QLIDPywuxjiI-19">
          <mxGeometry relative="1" as="geometry">
            <mxPoint x="202.78305900278633" y="86.29506336139127" as="sourcePoint" />
          </mxGeometry>
        </mxCell>
        <mxCell id="_Vo9d1E7QLIDPywuxjiI-24" value="" style="endArrow=classic;html=1;rounded=0;exitX=0.817;exitY=0.111;exitDx=0;exitDy=0;entryX=0;entryY=0.5;entryDx=0;entryDy=0;strokeColor=#B3B3B3;exitPerimeter=0;" edge="1" parent="_Vo9d1E7QLIDPywuxjiI-17" source="_Vo9d1E7QLIDPywuxjiI-20" target="_Vo9d1E7QLIDPywuxjiI-18">
          <mxGeometry width="50" height="50" relative="1" as="geometry">
            <mxPoint x="200" y="90" as="sourcePoint" />
            <mxPoint x="250" y="40" as="targetPoint" />
          </mxGeometry>
        </mxCell>
        <mxCell id="_Vo9d1E7QLIDPywuxjiI-39" value="分发" style="edgeLabel;html=1;align=center;verticalAlign=middle;resizable=0;points=[];" vertex="1" connectable="0" parent="_Vo9d1E7QLIDPywuxjiI-24">
          <mxGeometry x="0.0351" y="1" relative="1" as="geometry">
            <mxPoint y="5" as="offset" />
          </mxGeometry>
        </mxCell>
        <mxCell id="_Vo9d1E7QLIDPywuxjiI-26" value="下发" style="edgeLabel;html=1;align=center;verticalAlign=middle;resizable=0;points=[];" vertex="1" connectable="0" parent="_Vo9d1E7QLIDPywuxjiI-17">
          <mxGeometry x="99.99982265664107" y="119.9975320415086" as="geometry">
            <mxPoint x="49" y="-12" as="offset" />
          </mxGeometry>
        </mxCell>
        <mxCell id="_Vo9d1E7QLIDPywuxjiI-27" value="" style="edgeStyle=none;rounded=1;html=1;labelBackgroundColor=none;startArrow=none;startFill=0;startSize=5;endArrow=classicThin;endFill=1;endSize=5;jettySize=auto;orthogonalLoop=1;strokeColor=#B3B3B3;strokeWidth=1;fontFamily=Verdana;fontSize=12;exitX=0.13;exitY=0.77;exitDx=0;exitDy=0;exitPerimeter=0;" edge="1" parent="_Vo9d1E7QLIDPywuxjiI-17" source="_Vo9d1E7QLIDPywuxjiI-21" target="_Vo9d1E7QLIDPywuxjiI-20">
          <mxGeometry x="0.0028" relative="1" as="geometry">
            <mxPoint x="127.00978874751354" y="86.07957778593618" as="sourcePoint" />
            <mxPoint as="offset" />
          </mxGeometry>
        </mxCell>
        <mxCell id="_Vo9d1E7QLIDPywuxjiI-28" value="下发" style="edgeLabel;html=1;align=center;verticalAlign=middle;resizable=0;points=[];" vertex="1" connectable="0" parent="_Vo9d1E7QLIDPywuxjiI-27">
          <mxGeometry x="0.0656" y="-1" relative="1" as="geometry">
            <mxPoint x="-7" y="-24" as="offset" />
          </mxGeometry>
        </mxCell>
        <mxCell id="_Vo9d1E7QLIDPywuxjiI-32" value="下发" style="edgeLabel;html=1;align=center;verticalAlign=middle;resizable=0;points=[];" vertex="1" connectable="0" parent="_Vo9d1E7QLIDPywuxjiI-17">
          <mxGeometry x="229.99633382216973" y="110.00435142027982" as="geometry" />
        </mxCell>
        <mxCell id="_Vo9d1E7QLIDPywuxjiI-48" value="下发" style="edgeLabel;html=1;align=center;verticalAlign=middle;resizable=0;points=[];" vertex="1" connectable="0" parent="_Vo9d1E7QLIDPywuxjiI-17">
          <mxGeometry x="219.99633382216973" y="150.00435142027982" as="geometry" />
        </mxCell>
        <mxCell id="_Vo9d1E7QLIDPywuxjiI-49" value="" style="edgeStyle=none;rounded=1;html=1;labelBackgroundColor=none;startArrow=none;startFill=0;startSize=5;endArrow=classicThin;endFill=1;endSize=5;jettySize=auto;orthogonalLoop=1;strokeColor=#B3B3B3;strokeWidth=1;fontFamily=Verdana;fontSize=12;exitX=0.787;exitY=0.881;exitDx=0;exitDy=0;exitPerimeter=0;entryX=0.594;entryY=-0.013;entryDx=0;entryDy=0;entryPerimeter=0;" edge="1" parent="_Vo9d1E7QLIDPywuxjiI-17" target="_Vo9d1E7QLIDPywuxjiI-36">
          <mxGeometry relative="1" as="geometry">
            <mxPoint x="130" y="65" as="sourcePoint" />
            <mxPoint x="159" y="235" as="targetPoint" />
          </mxGeometry>
        </mxCell>
        <mxCell id="_Vo9d1E7QLIDPywuxjiI-51" value="" style="endArrow=classic;html=1;rounded=0;exitX=1.007;exitY=0.665;exitDx=0;exitDy=0;entryX=0.033;entryY=0.684;entryDx=0;entryDy=0;strokeColor=#B3B3B3;entryPerimeter=0;exitPerimeter=0;" edge="1" parent="_Vo9d1E7QLIDPywuxjiI-17" source="_Vo9d1E7QLIDPywuxjiI-18" target="_Vo9d1E7QLIDPywuxjiI-19">
          <mxGeometry width="50" height="50" relative="1" as="geometry">
            <mxPoint x="252" y="254" as="sourcePoint" />
            <mxPoint x="293" y="201" as="targetPoint" />
          </mxGeometry>
        </mxCell>
        <mxCell id="_Vo9d1E7QLIDPywuxjiI-52" value="分发" style="edgeLabel;html=1;align=center;verticalAlign=middle;resizable=0;points=[];" vertex="1" connectable="0" parent="_Vo9d1E7QLIDPywuxjiI-51">
          <mxGeometry x="-0.2095" y="-1" relative="1" as="geometry">
            <mxPoint as="offset" />
          </mxGeometry>
        </mxCell>
        <mxCell id="_Vo9d1E7QLIDPywuxjiI-34" value="&lt;span&gt;客户端&lt;/span&gt;" style="ellipse;whiteSpace=wrap;html=1;rounded=0;shadow=1;comic=0;labelBackgroundColor=none;strokeWidth=1;fontFamily=Verdana;fontSize=12;align=center;" vertex="1" parent="_Vo9d1E7QLIDPywuxjiI-55">
          <mxGeometry x="185" y="240" width="75" height="50" as="geometry" />
        </mxCell>
        <mxCell id="_Vo9d1E7QLIDPywuxjiI-36" value="&lt;span&gt;客户端&lt;/span&gt;" style="ellipse;whiteSpace=wrap;html=1;rounded=0;shadow=1;comic=0;labelBackgroundColor=none;strokeWidth=1;fontFamily=Verdana;fontSize=12;align=center;" vertex="1" parent="_Vo9d1E7QLIDPywuxjiI-55">
          <mxGeometry x="30" y="240" width="75" height="50" as="geometry" />
        </mxCell>
        <mxCell id="_Vo9d1E7QLIDPywuxjiI-38" value="" style="endArrow=classic;html=1;rounded=0;exitX=0.766;exitY=0.082;exitDx=0;exitDy=0;entryX=0.312;entryY=1.017;entryDx=0;entryDy=0;strokeColor=#B3B3B3;exitPerimeter=0;entryPerimeter=0;" edge="1" parent="_Vo9d1E7QLIDPywuxjiI-55" source="_Vo9d1E7QLIDPywuxjiI-34" target="_Vo9d1E7QLIDPywuxjiI-19">
          <mxGeometry width="50" height="50" relative="1" as="geometry">
            <mxPoint x="71" y="156" as="sourcePoint" />
            <mxPoint x="138" y="175" as="targetPoint" />
          </mxGeometry>
        </mxCell>
        <mxCell id="_Vo9d1E7QLIDPywuxjiI-44" value="分发" style="edgeLabel;html=1;align=center;verticalAlign=middle;resizable=0;points=[];" vertex="1" connectable="0" parent="_Vo9d1E7QLIDPywuxjiI-38">
          <mxGeometry x="-0.2095" y="-1" relative="1" as="geometry">
            <mxPoint as="offset" />
          </mxGeometry>
        </mxCell>
        <mxCell id="_Vo9d1E7QLIDPywuxjiI-29" style="edgeStyle=none;rounded=1;html=1;labelBackgroundColor=none;startArrow=none;startFill=0;startSize=5;endArrow=classicThin;endFill=1;endSize=5;jettySize=auto;orthogonalLoop=1;strokeColor=#B3B3B3;strokeWidth=1;fontFamily=Verdana;fontSize=12;exitX=0.5;exitY=1;exitDx=0;exitDy=0;" edge="1" parent="_Vo9d1E7QLIDPywuxjiI-55" source="_Vo9d1E7QLIDPywuxjiI-18" target="_Vo9d1E7QLIDPywuxjiI-36">
          <mxGeometry relative="1" as="geometry">
            <mxPoint x="330" y="160" as="sourcePoint" />
            <mxPoint x="90" y="240" as="targetPoint" />
          </mxGeometry>
        </mxCell>
        <mxCell id="_Vo9d1E7QLIDPywuxjiI-41" value="分发" style="edgeLabel;html=1;align=center;verticalAlign=middle;resizable=0;points=[];" vertex="1" connectable="0" parent="_Vo9d1E7QLIDPywuxjiI-29">
          <mxGeometry x="-0.21" y="1" relative="1" as="geometry">
            <mxPoint x="-9" as="offset" />
          </mxGeometry>
        </mxCell>
        <mxCell id="_Vo9d1E7QLIDPywuxjiI-42" style="edgeStyle=none;rounded=1;html=1;labelBackgroundColor=none;startArrow=none;startFill=0;startSize=5;endArrow=classicThin;endFill=1;endSize=5;jettySize=auto;orthogonalLoop=1;strokeColor=#B3B3B3;strokeWidth=1;fontFamily=Verdana;fontSize=12;exitX=0.5;exitY=1;exitDx=0;exitDy=0;entryX=0.442;entryY=0.006;entryDx=0;entryDy=0;entryPerimeter=0;" edge="1" parent="_Vo9d1E7QLIDPywuxjiI-55" source="_Vo9d1E7QLIDPywuxjiI-20" target="_Vo9d1E7QLIDPywuxjiI-36">
          <mxGeometry relative="1" as="geometry">
            <mxPoint x="175" y="200" as="sourcePoint" />
            <mxPoint x="102" y="256" as="targetPoint" />
          </mxGeometry>
        </mxCell>
        <mxCell id="_Vo9d1E7QLIDPywuxjiI-43" value="分发" style="edgeLabel;html=1;align=center;verticalAlign=middle;resizable=0;points=[];" vertex="1" connectable="0" parent="_Vo9d1E7QLIDPywuxjiI-42">
          <mxGeometry x="-0.21" y="1" relative="1" as="geometry">
            <mxPoint x="2" as="offset" />
          </mxGeometry>
        </mxCell>
        <mxCell id="_Vo9d1E7QLIDPywuxjiI-47" value="" style="edgeStyle=none;rounded=1;html=1;labelBackgroundColor=none;startArrow=none;startFill=0;startSize=5;endArrow=classicThin;endFill=1;endSize=5;jettySize=auto;orthogonalLoop=1;strokeColor=#B3B3B3;strokeWidth=1;fontFamily=Verdana;fontSize=12;exitX=0.787;exitY=0.881;exitDx=0;exitDy=0;exitPerimeter=0;entryX=0.5;entryY=0;entryDx=0;entryDy=0;" edge="1" parent="_Vo9d1E7QLIDPywuxjiI-55" source="_Vo9d1E7QLIDPywuxjiI-21" target="_Vo9d1E7QLIDPywuxjiI-34">
          <mxGeometry relative="1" as="geometry">
            <mxPoint x="216" y="76" as="sourcePoint" />
            <mxPoint x="291" y="150" as="targetPoint" />
          </mxGeometry>
        </mxCell>
        <mxCell id="_Vo9d1E7QLIDPywuxjiI-50" value="下发" style="edgeLabel;html=1;align=center;verticalAlign=middle;resizable=0;points=[];" vertex="1" connectable="0" parent="_Vo9d1E7QLIDPywuxjiI-55">
          <mxGeometry x="229.99633382216973" y="160.00435142027982" as="geometry">
            <mxPoint x="-132" y="-43" as="offset" />
          </mxGeometry>
        </mxCell>
        <mxCell id="_Vo9d1E7QLIDPywuxjiI-37" value="" style="edgeStyle=orthogonalEdgeStyle;rounded=0;orthogonalLoop=1;jettySize=auto;html=1;strokeColor=#999999;" edge="1" parent="_Vo9d1E7QLIDPywuxjiI-55" source="_Vo9d1E7QLIDPywuxjiI-34" target="_Vo9d1E7QLIDPywuxjiI-36">
          <mxGeometry relative="1" as="geometry" />
        </mxCell>
        <mxCell id="_Vo9d1E7QLIDPywuxjiI-45" value="分发" style="edgeLabel;html=1;align=center;verticalAlign=middle;resizable=0;points=[];" vertex="1" connectable="0" parent="_Vo9d1E7QLIDPywuxjiI-37">
          <mxGeometry x="-0.2205" y="1" relative="1" as="geometry">
            <mxPoint as="offset" />
          </mxGeometry>
        </mxCell>
        <mxCell id="_Vo9d1E7QLIDPywuxjiI-53" value="" style="endArrow=classic;html=1;rounded=0;exitX=0;exitY=1;exitDx=0;exitDy=0;entryX=0.633;entryY=-0.003;entryDx=0;entryDy=0;strokeColor=#B3B3B3;entryPerimeter=0;" edge="1" parent="_Vo9d1E7QLIDPywuxjiI-55" source="_Vo9d1E7QLIDPywuxjiI-19" target="_Vo9d1E7QLIDPywuxjiI-34">
          <mxGeometry width="50" height="50" relative="1" as="geometry">
            <mxPoint x="213" y="183" as="sourcePoint" />
            <mxPoint x="272" y="184" as="targetPoint" />
          </mxGeometry>
        </mxCell>
        <mxCell id="_Vo9d1E7QLIDPywuxjiI-54" value="分发" style="edgeLabel;html=1;align=center;verticalAlign=middle;resizable=0;points=[];" vertex="1" connectable="0" parent="_Vo9d1E7QLIDPywuxjiI-53">
          <mxGeometry x="-0.2095" y="-1" relative="1" as="geometry">
            <mxPoint as="offset" />
          </mxGeometry>
        </mxCell>
      </root>
    </mxGraphModel>
  </diagram>
</mxfile>
